<?xml version="1.0" standalone="no"?>
<!DOCTYPE svg PUBLIC "-//W3C//DTD SVG 20010904//EN"
 "http://www.w3.org/TR/2001/REC-SVG-20010904/DTD/svg10.dtd">
<svg version="1.0" xmlns="http://www.w3.org/2000/svg"
 width="1792.000000pt" height="1624.000000pt" viewBox="0 0 1792.000000 1624.000000"
 preserveAspectRatio="xMidYMid meet">

<g transform="translate(0.000000,1624.000000) scale(0.100000,-0.100000)"
fill="#000000" stroke="none">
<path d="M5759 14686 c-2 -2 -74 -7 -159 -11 -85 -3 -157 -8 -160 -10 -4 -2
-42 -7 -85 -10 -43 -3 -110 -10 -149 -16 -74 -11 -98 -14 -169 -24 -37 -5 -69
-11 -167 -30 -14 -3 -38 -8 -55 -11 -247 -44 -715 -188 -938 -288 -18 -8 -75
-33 -127 -56 -249 -110 -570 -301 -817 -486 -399 -301 -756 -700 -943 -1057
-119 -225 -256 -616 -294 -840 -3 -15 -7 -35 -10 -45 -3 -9 -8 -33 -10 -52 -3
-19 -9 -60 -15 -90 -6 -30 -13 -77 -16 -105 -3 -27 -10 -84 -16 -125 -24 -192
-22 -718 5 -920 2 -14 6 -54 10 -90 16 -147 58 -358 131 -650 23 -90 120 -376
173 -510 223 -558 561 -1115 988 -1625 269 -322 793 -864 1099 -1136 515 -457
1042 -851 1573 -1174 37 -23 64 -46 67 -59 2 -12 9 -52 15 -91 7 -38 14 -83
17 -100 3 -16 16 -82 30 -145 13 -63 26 -126 29 -140 21 -114 76 -276 113
-340 226 -380 850 -807 1496 -1022 176 -58 280 -78 412 -78 129 0 334 20 473
45 47 9 99 18 115 21 57 11 217 54 286 78 134 46 304 168 491 351 l96 94 84
-14 c45 -8 106 -17 133 -20 28 -3 61 -7 75 -9 14 -3 48 -7 75 -11 28 -3 79
-10 115 -15 36 -5 100 -12 143 -15 43 -4 87 -8 97 -10 10 -2 98 -9 197 -15 98
-7 180 -14 182 -16 2 -2 3 -76 3 -165 -1 -124 2 -167 13 -189 10 -19 111 -95
302 -226 159 -109 309 -212 335 -230 48 -34 213 -148 602 -416 200 -138 235
-158 269 -158 56 0 92 39 102 111 3 29 8 65 10 79 19 134 26 182 31 225 3 28
7 62 10 77 7 46 72 529 79 588 8 76 12 104 19 137 3 15 8 55 12 88 3 33 8 71
10 85 2 14 6 44 9 68 13 113 14 115 78 133 79 21 317 122 437 185 536 281 977
727 1310 1325 l54 96 150 42 c83 24 180 51 216 61 36 10 126 35 200 55 74 20
164 45 200 55 174 51 244 70 305 86 6 1 69 19 140 39 72 20 173 47 225 61 128
33 229 63 263 76 52 20 68 92 29 130 -16 15 -910 652 -1056 751 l-69 47 -106
-5 c-58 -3 -142 -8 -186 -10 -44 -2 -118 -6 -165 -9 -47 -4 -146 -8 -220 -11
-74 -3 -155 -7 -180 -10 -25 -2 -118 -7 -207 -10 -89 -3 -170 -8 -180 -9 -10
-2 -63 -7 -118 -10 -55 -4 -118 -9 -140 -11 -22 -2 -87 -7 -145 -10 -58 -3
-114 -8 -125 -10 -11 -2 -73 -7 -137 -10 -145 -7 -157 -10 -182 -34 -22 -22
-25 -79 -5 -92 7 -4 29 -6 48 -4 20 2 90 6 156 9 66 3 154 8 195 11 41 3 143
7 225 10 146 6 217 9 435 20 58 3 165 7 239 10 74 3 166 8 204 10 173 10 392
17 387 12 -3 -3 -47 -8 -99 -11 -52 -4 -97 -8 -100 -10 -3 -2 -52 -7 -108 -10
-56 -4 -112 -9 -125 -11 -13 -2 -54 -6 -93 -9 -119 -10 -169 -15 -259 -25 -49
-6 -91 -10 -95 -9 -3 1 -37 -2 -76 -6 -38 -4 -90 -9 -115 -11 -25 -3 -92 -9
-150 -15 -151 -15 -424 -40 -500 -46 -36 -3 -66 -6 -67 -8 -1 -1 105 -86 235
-188 429 -337 595 -467 785 -616 103 -80 187 -150 187 -155 0 -12 -100 -191
-160 -287 -267 -425 -634 -784 -1038 -1014 -96 -54 -288 -146 -306 -146 -6 0
-16 -4 -22 -10 -14 -14 -271 -97 -388 -125 -125 -31 -281 -61 -361 -70 -33 -4
-67 -9 -75 -10 -65 -11 -117 -17 -270 -29 -254 -22 -442 -22 -549 -1 -9 1 -45
6 -81 10 -162 17 -369 65 -570 131 -143 47 -384 161 -460 217 -40 30 -47 41
-57 89 -29 139 -145 302 -382 538 -498 497 -1221 971 -1561 1026 -14 2 -41 7
-60 10 -90 17 -380 44 -491 47 l-95 2 -100 85 c-1631 1388 -2385 2130 -2873
2830 -169 242 -237 356 -349 580 -109 218 -196 433 -218 535 -2 11 -8 31 -13
45 -36 94 -83 325 -103 505 -6 55 -15 104 -19 109 -9 11 -6 -34 17 -224 100
-824 525 -1611 1383 -2563 383 -425 905 -935 1689 -1651 149 -136 272 -249
272 -250 0 -1 -10 -2 -22 -2 -27 -1 -190 -14 -233 -19 -16 -3 -55 -7 -85 -11
-56 -7 -74 -10 -120 -19 -14 -2 -38 -7 -55 -10 -41 -6 -181 -49 -230 -70 -22
-10 -58 -30 -80 -45 l-40 -28 -136 107 c-882 691 -1620 1432 -2159 2167 -124
168 -362 525 -459 689 -78 131 -186 338 -221 425 -12 30 -30 73 -40 95 -18 41
-67 186 -75 221 -2 10 -13 53 -24 94 -11 41 -23 93 -25 115 -3 22 -8 51 -11
65 -2 14 -7 36 -10 50 -32 164 -26 666 10 850 3 14 8 45 11 70 3 24 12 65 20
90 14 44 18 78 10 69 -9 -8 -55 -198 -61 -246 -3 -26 -8 -61 -11 -76 -26 -124
-39 -590 -22 -747 27 -242 99 -512 198 -745 169 -399 555 -1025 918 -1490 487
-623 1166 -1309 1879 -1898 l123 -102 0 -45 c0 -25 -3 -62 -6 -82 -8 -45 7
-52 -205 88 -273 179 -581 405 -861 630 -477 385 -1100 995 -1478 1449 -314
377 -599 808 -789 1195 -71 145 -85 175 -133 290 -11 25 -23 54 -29 65 -33 71
-135 363 -165 475 -76 275 -85 324 -83 455 3 425 131 799 363 1065 32 36 61
67 67 68 5 2 9 8 9 13 0 17 -117 -80 -198 -165 -42 -45 -98 -113 -124 -152
-56 -85 -148 -269 -173 -344 l-19 -55 -8 35 c-4 19 -7 148 -6 285 1 252 11
429 29 497 20 78 141 196 263 257 l61 31 -60 -1 c-53 0 -136 -14 -202 -34 -28
-9 -28 -3 -7 85 9 36 18 79 21 95 3 17 12 50 20 74 8 24 16 53 19 64 2 11 13
48 24 81 l20 61 85 -3 85 -4 0 26 c0 19 -13 35 -57 68 -32 23 -59 43 -60 43
-6 3 44 121 91 216 50 100 95 173 173 282 l35 47 70 -75 c38 -41 73 -75 78
-75 4 0 1 24 -7 53 -7 28 -20 90 -28 136 -12 72 -13 88 -1 105 40 62 377 397
450 449 l29 21 -8 -25 c-13 -42 -15 -418 -2 -481 7 -31 15 -59 18 -63 4 -3 9
32 12 77 7 103 7 102 43 253 27 114 85 252 162 382 33 55 49 69 147 132 308
197 653 360 985 465 171 54 202 64 235 71 17 3 39 8 50 11 11 3 -32 -23 -95
-58 -354 -195 -636 -462 -826 -784 -49 -83 -94 -176 -94 -192 0 -4 16 22 36
58 80 143 154 240 288 378 219 225 428 366 766 519 159 72 555 179 735 198 31
4 65 8 75 10 10 2 50 7 87 10 37 4 77 9 88 11 110 23 739 22 900 -1 17 -2 82
-9 145 -15 100 -10 162 -18 340 -45 19 -3 58 -10 85 -15 28 -5 66 -12 85 -15
65 -10 245 -46 300 -60 30 -8 69 -16 85 -19 40 -7 354 -85 385 -95 14 -5 61
-19 105 -31 203 -55 610 -194 749 -254 17 -7 63 -26 101 -42 39 -15 99 -41
135 -57 36 -15 87 -38 115 -50 111 -49 548 -270 665 -337 1061 -607 1995
-1421 2797 -2440 680 -865 1244 -1877 1534 -2755 59 -178 65 -197 103 -356 70
-289 81 -450 43 -667 -13 -73 -21 -135 -17 -137 3 -2 39 -4 80 -5 136 -3 127
-6 135 46 3 25 9 56 11 67 12 56 22 170 23 252 1 80 -2 123 -25 280 -3 22 -16
87 -29 145 l-24 105 108 110 c222 227 628 651 653 682 17 21 24 40 21 56 -3
13 -48 78 -101 144 -471 582 -447 555 -510 569 -29 7 -76 15 -105 19 -29 4
-61 8 -72 10 -79 13 -358 55 -395 59 -25 3 -74 10 -110 16 -36 5 -72 10 -81
10 -12 0 6 -51 77 -217 51 -120 100 -234 107 -253 57 -139 202 -517 229 -595
5 -16 15 -40 21 -52 6 -13 8 -25 5 -28 -3 -3 -13 13 -23 37 -9 24 -23 57 -30
73 -7 17 -48 109 -90 205 -139 313 -370 786 -478 975 -22 39 -48 86 -59 105
-74 131 -239 395 -358 574 -793 1195 -1830 2215 -2990 2941 -361 226 -858 486
-1200 627 -52 22 -114 48 -137 59 -24 10 -47 19 -53 19 -6 0 -18 4 -28 9 -184
94 -914 319 -1267 391 -33 7 -64 13 -70 15 -9 1 -50 10 -105 21 -8 1 -46 9
-85 17 -38 8 -89 18 -112 21 -22 3 -52 8 -65 11 -12 3 -39 7 -58 9 -19 3 -69
9 -110 15 -41 6 -93 14 -115 16 -22 3 -51 8 -65 10 -14 2 -59 7 -100 10 -41 4
-106 10 -145 15 -38 4 -77 8 -85 8 -8 0 -96 5 -195 11 -175 10 -537 15 -546 7z
m8446 -5206 c356 -51 396 -59 425 -89 51 -52 465 -533 476 -553 6 -11 9 -31 6
-44 -3 -15 -85 -101 -221 -229 l-216 -206 -8 38 c-5 21 -18 70 -29 108 -11 39
-21 77 -23 85 -2 8 -11 35 -20 60 -9 25 -25 71 -37 103 -36 102 -174 370 -246
478 -39 57 -103 142 -143 188 -42 48 -64 81 -53 77 10 -3 51 -10 89 -16z m278
-2607 c-7 -2 -19 -2 -25 0 -7 3 -2 5 12 5 14 0 19 -2 13 -5z m-7301 -974 c59
-5 120 -11 135 -14 15 -3 55 -8 88 -11 90 -9 108 -18 101 -52 -7 -31 -14 -84
-21 -162 -3 -30 -8 -66 -10 -80 -2 -14 -7 -47 -10 -75 -3 -27 -23 -196 -46
-375 -22 -179 -41 -333 -42 -342 -2 -21 -2 -21 -47 -8 -125 36 -498 72 -670
64 -124 -6 -238 -15 -280 -23 -25 -5 -47 -10 -50 -10 -54 -7 -173 -45 -237
-76 -68 -34 -84 -38 -88 -25 -45 148 -117 512 -133 673 -4 40 -7 131 -7 202 0
177 9 189 173 241 105 34 218 53 437 74 106 10 572 10 707 -1z m620 -146 c240
-120 605 -370 913 -624 168 -138 443 -421 513 -527 76 -114 90 -156 73 -214
-27 -91 -127 -225 -283 -379 -88 -87 -228 -209 -240 -209 -3 0 -34 39 -70 88
-171 228 -548 503 -1022 745 -56 29 -104 55 -107 59 -3 5 0 52 7 106 7 53 16
122 19 152 3 30 8 64 10 75 2 11 7 47 10 80 3 33 11 94 16 135 6 41 12 95 15
120 7 71 43 361 49 398 3 17 10 32 15 32 5 0 42 -16 82 -37z m-792 -1084 c119
-17 134 -20 210 -40 338 -90 700 -293 1060 -595 93 -78 324 -313 316 -322 -3
-2 -33 21 -68 53 -86 78 -294 234 -458 342 -142 94 -380 238 -440 265 -135 62
-177 80 -275 116 -107 39 -248 79 -310 89 -16 2 -55 9 -85 15 -72 14 -397 19
-480 7 -36 -5 -83 -12 -104 -15 -22 -3 -87 -16 -145 -29 -58 -13 -107 -22
-109 -21 -1 2 19 11 45 20 27 10 64 24 83 31 119 46 333 91 455 94 33 1 62 4
64 7 6 6 156 -4 241 -17z m2535 -499 c48 -27 90 -50 94 -50 4 0 16 -7 27 -16
18 -14 15 -15 -36 -9 -30 3 -66 8 -80 10 -14 2 -50 7 -80 10 -30 4 -58 9 -62
11 -6 4 41 94 49 94 1 0 40 -22 88 -50z"/>
<path d="M6740 5763 c-100 -4 -372 -23 -399 -28 -14 -2 -47 -7 -75 -10 -87
-10 -180 -37 -204 -59 -47 -42 -55 -71 -47 -175 9 -128 16 -186 30 -266 3 -16
8 -41 10 -54 2 -14 9 -47 14 -75 6 -28 12 -62 15 -76 9 -54 27 -110 36 -110 5
0 30 7 56 16 161 55 421 78 754 68 135 -4 254 -7 265 -5 11 1 29 12 40 25 18
19 24 58 49 307 35 354 34 329 19 361 -17 35 -42 48 -101 54 -26 2 -60 7 -77
10 -16 2 -91 7 -165 10 -74 3 -139 6 -145 7 -5 1 -39 1 -75 0z"/>
<path d="M7829 5523 c-1 -10 -7 -52 -15 -113 -7 -45 -8 -57 -18 -141 -8 -71
-14 -122 -31 -254 -9 -66 -18 -147 -21 -180 l-6 -60 109 -54 c306 -151 615
-367 854 -598 91 -88 111 -102 127 -94 26 14 190 187 245 258 25 33 53 76 63
95 l16 35 -38 54 c-202 285 -604 649 -1028 931 -66 44 -141 90 -167 104 -48
24 -88 31 -90 17z"/>
<path d="M5568 13505 c-2 -1 -46 -6 -98 -9 -52 -4 -104 -9 -115 -11 -11 -2
-44 -7 -73 -10 -96 -10 -377 -64 -447 -85 -310 -96 -515 -188 -712 -320 -118
-78 -254 -182 -248 -188 2 -2 34 16 72 41 139 91 381 206 543 260 158 52 345
99 445 112 28 4 59 9 70 10 162 26 304 34 545 33 235 -1 358 -7 493 -23 29 -4
66 -8 82 -10 93 -11 136 -17 190 -27 33 -5 74 -12 90 -14 26 -4 121 -23 150
-30 6 -1 28 -5 50 -9 22 -3 83 -17 136 -30 53 -13 107 -26 120 -29 254 -53
780 -221 1144 -366 11 -4 63 -25 115 -45 52 -21 118 -48 145 -61 28 -12 90
-39 140 -59 397 -163 1103 -528 1630 -843 1404 -838 2748 -1939 3449 -2825
191 -242 385 -531 491 -734 21 -40 40 -73 41 -73 2 0 -5 22 -16 49 -168 428
-464 908 -847 1376 -323 394 -741 817 -1188 1200 -1018 873 -2248 1625 -3470
2122 -232 94 -547 205 -830 294 -131 41 -476 133 -545 145 -14 3 -72 16 -130
29 -58 14 -118 27 -135 30 -16 2 -120 18 -230 35 -110 17 -218 32 -240 34 -22
2 -72 7 -112 11 -39 4 -87 9 -105 11 -40 5 -595 13 -600 9z"/>
<path d="M3566 13245 c-9 -26 -7 -32 5 -12 6 10 9 21 6 23 -2 3 -7 -2 -11 -11z"/>
<path d="M2915 12749 c-16 -5 -43 -11 -60 -13 -50 -8 -206 -92 -271 -145 -145
-121 -239 -290 -279 -506 -10 -55 -6 -189 9 -265 52 -271 220 -466 451 -525
83 -21 235 -19 321 3 238 64 419 240 515 502 35 98 44 159 43 300 -2 358 -269
645 -609 655 -49 1 -103 -1 -120 -6z m278 -242 c161 -80 251 -246 243 -450 -4
-100 -11 -135 -41 -210 -75 -187 -219 -317 -397 -357 -201 -46 -407 94 -475
323 -18 60 -25 176 -14 232 7 35 8 31 8 -30 1 -80 33 -180 76 -237 15 -19 51
-48 79 -64 109 -60 253 -30 357 74 146 146 187 409 90 569 -26 41 -84 92 -128
111 -48 20 -135 23 -185 6 -38 -13 -40 -13 -21 2 55 44 157 72 257 69 67 -1
88 -7 151 -38z"/>
<path d="M4225 12250 c-46 -5 -43 -6 40 -13 50 -5 126 -12 170 -18 44 -5 103
-12 130 -15 28 -3 104 -15 170 -26 66 -11 134 -22 150 -25 95 -15 300 -64 618
-147 10 -3 32 -10 50 -15 92 -30 143 -45 153 -47 29 -5 397 -133 534 -186 252
-97 689 -278 870 -361 30 -14 109 -49 175 -79 641 -292 1378 -676 2075 -1083
30 -17 98 -57 152 -88 241 -140 788 -479 1098 -681 204 -132 888 -590 967
-646 34 -25 111 -78 170 -119 328 -225 1137 -810 1546 -1119 76 -57 140 -102
143 -100 7 8 -432 419 -681 639 -911 802 -1995 1595 -3100 2269 -66 40 -148
90 -182 111 -34 22 -64 39 -67 39 -2 0 -77 43 -165 95 -89 52 -164 95 -166 95
-2 0 -50 26 -107 58 -230 130 -710 378 -1018 525 -151 72 -401 181 -725 316
-121 51 -286 115 -325 126 -14 4 -38 13 -55 20 -68 28 -240 87 -395 135 -91
28 -194 61 -230 72 -36 11 -72 21 -80 23 -8 2 -94 24 -190 49 -154 40 -542
122 -670 141 -25 4 -56 8 -70 11 -72 10 -309 35 -410 43 -123 9 -493 9 -575 1z"/>
<path d="M4010 11616 c0 -3 28 -19 63 -36 144 -74 906 -474 1292 -680 39 -20
124 -65 190 -100 66 -35 188 -99 270 -143 83 -44 197 -105 255 -135 58 -30
206 -109 330 -175 124 -66 263 -140 310 -165 47 -25 173 -92 280 -150 107 -58
233 -125 280 -150 206 -109 1121 -610 1390 -760 162 -91 329 -184 370 -207 41
-23 149 -85 240 -137 91 -53 242 -139 335 -193 474 -273 1412 -846 1915 -1170
36 -23 180 -116 320 -205 140 -90 312 -201 382 -247 70 -46 129 -83 132 -83 8
0 -77 76 -229 206 -738 629 -1642 1271 -2675 1899 -159 97 -559 333 -630 373
-25 14 -72 40 -105 60 -50 29 -320 179 -594 329 -105 58 -295 159 -541 287
-375 195 -1153 576 -1475 721 -27 12 -79 36 -115 53 -36 16 -128 58 -205 92
-77 34 -158 71 -180 81 -22 10 -125 54 -230 99 -104 44 -199 85 -210 90 -34
15 -205 86 -290 120 -44 17 -96 38 -115 47 -70 30 -109 46 -422 164 -175 66
-322 118 -335 119 -2 0 -3 -2 -3 -4z"/>
<path d="M3736 11245 c14 -36 131 -258 178 -338 530 -893 1791 -2150 3241
-3232 618 -461 1394 -972 1935 -1273 25 -14 90 -51 145 -82 395 -225 1015
-532 1430 -707 72 -30 146 -62 165 -70 41 -18 34 -15 215 -86 257 -100 358
-136 800 -278 148 -48 565 -156 730 -190 22 -5 49 -10 60 -12 11 -3 79 -15
150 -28 115 -20 134 -26 163 -53 l34 -31 36 41 c21 23 70 78 110 123 129 145
367 487 360 518 -2 7 -46 59 -98 116 -96 104 -348 308 -879 711 -299 227
-1020 696 -1969 1283 -777 480 -1971 1171 -2582 1496 -52 27 -99 53 -105 57
-5 4 -55 31 -110 60 -55 29 -104 56 -110 60 -5 4 -46 27 -90 50 -44 24 -251
135 -460 248 -209 112 -423 227 -475 255 -52 27 -180 96 -285 152 -206 110
-331 177 -495 263 -58 30 -123 65 -145 77 -22 12 -112 60 -200 105 -88 46
-164 86 -170 90 -21 15 -285 151 -285 146 0 -5 109 -64 390 -214 47 -25 90
-48 95 -52 6 -4 51 -29 100 -55 50 -27 106 -57 125 -68 19 -11 69 -38 110 -60
41 -22 152 -83 245 -135 94 -52 215 -119 270 -150 482 -265 1511 -866 2050
-1197 262 -161 489 -302 610 -379 72 -45 180 -114 240 -152 61 -38 159 -101
218 -139 160 -104 873 -579 1017 -678 69 -47 199 -137 290 -199 222 -153 901
-637 920 -656 13 -13 13 -14 0 -7 -8 5 -127 84 -265 175 -664 443 -1328 863
-1970 1248 -248 148 -532 317 -570 338 -11 6 -162 92 -335 191 -273 156 -731
412 -940 525 -155 84 -318 173 -355 193 -22 12 -94 50 -160 85 -66 34 -151 79
-190 100 -168 90 -312 165 -805 419 -309 160 -1301 654 -1303 650 -28 -48
-127 -188 -158 -223 -36 -41 -39 -49 -28 -64 39 -49 176 -214 369 -442 421
-498 430 -509 375 -464 -78 65 -535 532 -684 699 -370 416 -716 861 -886 1141
-69 114 -81 131 -69 99z m8054 -4721 c0 -3 -13 4 -30 16 -16 12 -30 24 -30 26
0 3 14 -4 30 -16 17 -12 30 -24 30 -26z"/>
<path d="M3244 10950 c0 -58 1 -81 3 -52 2 28 2 76 0 105 -2 28 -3 5 -3 -53z"/>
<path d="M4930 10766 c0 -2 7 -7 16 -10 8 -3 12 -2 9 4 -6 10 -25 14 -25 6z"/>
<path d="M4990 10736 c0 -2 7 -7 16 -10 8 -3 12 -2 9 4 -6 10 -25 14 -25 6z"/>
<path d="M4315 9979 c-77 -51 -255 -137 -370 -180 -49 -18 -92 -34 -94 -36 -6
-4 146 -248 260 -418 303 -452 588 -795 1019 -1226 418 -419 775 -727 1319
-1138 117 -88 210 -161 207 -161 -9 0 -222 142 -386 258 -894 632 -1636 1363
-2286 2258 -60 82 -140 195 -179 251 -38 56 -71 100 -72 99 -5 -5 85 -172 150
-281 272 -451 590 -839 1136 -1386 436 -435 952 -901 1788 -1612 l163 -138 77
-5 c109 -7 314 -24 343 -28 14 -2 48 -8 75 -12 28 -4 55 -8 60 -10 6 -1 26 -4
45 -8 66 -11 193 -47 254 -73 180 -75 455 -234 696 -404 589 -413 1048 -887
1131 -1168 10 -33 22 -49 53 -69 221 -139 641 -265 991 -297 39 -4 77 -9 85
-11 16 -5 271 -5 330 1 19 2 69 6 110 9 69 6 214 21 300 31 19 3 87 14 150 25
444 79 847 245 1165 480 l60 44 -120 24 c-66 12 -131 25 -145 27 -115 22 -597
141 -696 173 -32 10 -93 29 -134 42 -131 40 -404 129 -425 139 -11 5 -56 21
-100 37 -77 26 -379 142 -440 169 -16 7 -102 43 -190 80 -88 37 -196 84 -240
105 -44 20 -109 50 -145 66 -104 46 -602 294 -755 376 -422 225 -824 460
-1215 708 -164 104 -716 477 -875 590 -1133 810 -2223 1771 -2935 2590 -45 52
-87 100 -94 107 -8 9 -25 3 -71 -28z"/>
<path d="M2090 10003 c0 -53 142 -489 217 -668 14 -33 34 -82 46 -110 42 -100
226 -453 302 -580 378 -627 923 -1260 1615 -1875 l85 -75 -60 67 c-33 36 -120
130 -193 209 -518 554 -922 1107 -1300 1775 -46 80 -147 286 -212 429 -35 77
-126 360 -145 453 l-18 83 -61 41 c-34 23 -109 89 -168 149 -60 59 -108 105
-108 102z"/>
<path d="M3357 9614 c-6 -7 -69 -20 -152 -32 -27 -4 -123 -7 -212 -7 -116 0
-163 -3 -163 -12 0 -40 176 -422 259 -561 17 -29 31 -55 31 -57 0 -9 198 -318
278 -434 547 -795 1276 -1557 2185 -2284 88 -70 164 -127 170 -127 7 0 32 10
57 21 45 21 144 55 184 64 12 2 50 11 86 19 36 7 87 17 115 20 27 4 52 9 55
12 5 6 10 1 -360 344 -1063 983 -1714 1694 -2111 2305 -133 203 -237 386 -329
577 -70 145 -81 163 -93 152z"/>
</g>
</svg>
